# This file uses centimeters as units for non-parametric coordinates.

mtllib curtain.mtl
g default
v -14.210594 -29.034714 0.000000
v 14.210594 -29.034714 0.000000
v -14.210594 29.034714 -0.000000
v 14.210594 29.034714 -0.000000
v -0.048599 29.034714 0.231282
v -0.048599 -29.034714 2.319870
v -11.085134 29.034714 0.231282
v -11.085134 -29.034714 2.319870
v 11.106067 29.034714 0.231282
v 11.106067 -29.034714 2.319870
v -8.866779 29.034714 0.077094
v -8.866779 -29.034714 0.773290
v 8.869527 29.034714 0.077094
v 8.869527 -29.034714 0.773290
v -5.960544 29.034714 0.231282
v -5.960544 -29.034714 2.319870
v 5.953042 29.034714 0.231282
v 5.953042 -29.034714 2.319870
v -3.060960 29.034714 0.077094
v -3.060960 -29.034714 0.773290
v 2.933161 29.034714 0.077094
v 2.933161 -29.034714 0.773290
v 14.210594 21.648847 -0.000000
v 11.106068 21.648847 0.492355
v 8.869528 21.648847 0.164118
v 5.953042 21.648847 0.492355
v 2.933161 21.648847 0.164118
v -0.048599 21.648847 0.492355
v -3.060960 21.648847 0.164118
v -5.960544 21.648847 0.492355
v -8.866778 21.648847 0.164118
v -11.085134 21.648847 0.492355
v -14.210594 21.648847 -0.000000
v -13.564030 29.034714 0.038547
v -13.564029 21.648847 0.082059
v -13.564030 -29.034714 0.386645
v 13.585052 29.034714 0.038547
v 13.585052 21.648847 0.082059
v 13.585052 -29.034714 0.386645
v -14.210594 -21.393500 -0.000000
v -13.564029 -21.393500 0.343133
v -11.085134 -21.393500 2.058797
v -8.866778 -21.393500 0.686265
v -5.960545 -21.393500 2.058797
v -3.060960 -21.393500 0.686265
v -0.048599 -21.393500 2.058797
v 2.933161 -21.393500 0.686265
v 5.953042 -21.393500 2.058797
v 8.869528 -21.393500 0.686265
v 11.106067 -21.393500 2.058797
v 13.585052 -21.393500 0.343133
v 14.210594 -21.393500 -0.000000
v -11.085134 28.903780 0.231282
v -12.426883 29.034714 0.154188
v -13.564029 28.903780 0.038547
v -14.050086 21.648845 -0.000000
v -14.050084 29.034714 -0.000000
v -14.210594 28.903780 -0.000000
v -14.050086 -21.393500 -0.000000
v -14.210594 0.145912 -0.000000
v 12.451094 21.648847 0.328237
v 12.451094 29.034714 0.154188
v 12.451094 -21.393500 1.372531
v -14.050084 -29.034714 0.000000
v -13.564029 -28.757870 0.386645
v -14.210594 -28.757870 0.000000
v -12.426883 -29.034714 1.546580
v -11.085134 -28.757870 2.319870
v -9.985270 -29.034714 1.546580
v -8.866779 -28.757870 0.773290
v -7.469150 -29.034714 1.546580
v -5.960544 -28.757870 2.319870
v -4.509118 -29.034714 1.546580
v -3.060960 -28.757870 0.773290
v -1.562157 -29.034714 1.546580
v -0.048599 -28.757870 2.319870
v 1.443822 -29.034714 1.546580
v 2.933161 -28.757870 0.773290
v 4.437472 -29.034714 1.546580
v 5.953042 -28.757870 2.319870
v 7.476159 -29.034714 1.546580
v 8.869528 -28.757870 0.773290
v 9.995854 -29.034714 1.546580
v 11.106068 -28.757870 2.319870
v 12.451094 -29.034714 1.546580
v 13.585052 -28.757870 0.386645
v 14.062061 -29.034714 0.000000
v 14.210594 -28.757870 0.000000
v 14.062061 -21.393500 -0.000000
v 14.210594 0.145912 -0.000000
v 14.062061 21.648847 -0.000000
v 13.585052 0.145913 0.212596
v -1.562157 -21.393500 1.372531
v -0.048599 0.145912 1.275576
v -1.562157 21.648845 0.328237
v -3.060960 0.145912 0.425192
v -12.426884 -21.393500 1.372531
v -11.085134 0.145912 1.275576
v -12.426884 21.648845 0.328237
v -13.564029 0.145912 0.212596
v 9.995854 -21.393500 1.372531
v 11.106068 0.145912 1.275576
v 9.995854 21.648845 0.328237
v 8.869528 0.145912 0.425192
v -9.985268 -21.393500 1.372531
v -8.866779 0.145912 0.425192
v -9.985268 21.648845 0.328237
v 7.476159 -21.393500 1.372531
v 7.476159 21.648845 0.328237
v 5.953042 0.145912 1.275576
v -7.469151 -21.393500 1.372531
v -5.960544 0.145912 1.275576
v -7.469151 21.648845 0.328237
v 4.437472 -21.393500 1.372531
v 4.437472 21.648845 0.328237
v 2.933161 0.145912 0.425192
v -4.509118 -21.393500 1.372531
v -4.509118 21.648845 0.328237
v 1.443822 -21.393500 1.372531
v 1.443822 21.648845 0.328237
v 14.210594 28.903780 -0.000000
v 14.062061 29.034714 -0.000000
v 13.585052 28.903782 0.038547
v 11.106068 28.903780 0.231282
v 9.995854 29.034714 0.154188
v 8.869528 28.903780 0.077094
v 7.476159 29.034714 0.154188
v 5.953042 28.903780 0.231282
v 4.437472 29.034714 0.154188
v 2.933161 28.903780 0.077094
v 1.443822 29.034714 0.154188
v -0.048599 28.903780 0.231282
v -1.562157 29.034714 0.154188
v -3.060960 28.903780 0.077094
v -4.509118 29.034714 0.154188
v -5.960544 28.903780 0.231282
v -7.469150 29.034714 0.154188
v -8.866778 28.903780 0.077094
v -9.985270 29.034714 0.154188
v 14.062061 0.145912 -0.000000
v -1.562157 0.145912 0.850384
v -12.426883 0.145912 0.850384
v 9.995854 0.145912 0.850384
v -9.985269 0.145912 0.850384
v 7.476159 0.145912 0.850384
v -7.469150 0.145912 0.850384
v 4.437472 0.145912 0.850384
v -4.509118 0.145912 0.850384
v 1.443822 0.145912 0.850384
v 14.062061 28.903780 -0.000000
v 9.995854 28.903780 0.154188
v 7.476159 28.903780 0.154188
v 4.437472 28.903780 0.154188
v 1.443822 28.903780 0.154188
v -1.562157 28.903780 0.154188
v -4.509118 28.903780 0.154188
v -7.469150 28.903780 0.154188
v -9.985269 28.903780 0.154188
v -12.426883 28.903780 0.154188
v -14.050084 28.903780 -0.000000
v -14.050084 0.145912 -0.000000
v 12.451094 28.903780 0.154188
v 12.451094 0.145912 0.850384
v -14.050084 -28.757870 0.000000
v -12.426883 -28.757870 1.546580
v -9.985269 -28.757870 1.546580
v -7.469150 -28.757870 1.546580
v -4.509118 -28.757870 1.546580
v -1.562157 -28.757870 1.546580
v 1.443822 -28.757870 1.546580
v 4.437472 -28.757870 1.546580
v 7.476159 -28.757870 1.546580
v 9.995854 -28.757870 1.546580
v 12.451094 -28.757870 1.546580
v 14.062061 -28.757870 0.000000
vt 0.252252 0.005148
vt 0.747748 0.005148
vt 0.252252 0.994852
vt 0.747748 0.994852
vt 0.499337 0.994852
vt 0.499337 0.005148
vt 0.308850 0.994852
vt 0.308850 0.005148
vt 0.691577 0.994852
vt 0.691577 0.005148
vt 0.342983 0.994852
vt 0.342983 0.005148
vt 0.656959 0.994852
vt 0.656959 0.005148
vt 0.396582 0.994852
vt 0.396582 0.005148
vt 0.603720 0.994852
vt 0.603720 0.005148
vt 0.446194 0.994852
vt 0.446194 0.005148
vt 0.551006 0.994852
vt 0.551006 0.005148
vt 0.747748 0.990389
vt 0.693623 0.868971
vt 0.654631 0.868971
vt 0.603785 0.868971
vt 0.551137 0.868971
vt 0.499153 0.868971
vt 0.446635 0.868971
vt 0.396084 0.868971
vt 0.345416 0.868971
vt 0.306742 0.868971
vt 0.252252 0.990389
vt 0.257849 0.994852
vt 0.263524 0.868971
vt 0.257849 0.005148
vt 0.742569 0.994852
vt 0.736842 0.868971
vt 0.742569 0.005148
vt 0.252252 0.014585
vt 0.263524 0.135381
vt 0.306742 0.135381
vt 0.345416 0.135381
vt 0.396084 0.135381
vt 0.446635 0.135381
vt 0.499153 0.135381
vt 0.551137 0.135381
vt 0.603785 0.135381
vt 0.654631 0.135381
vt 0.693623 0.135381
vt 0.736842 0.135381
vt 0.747748 0.014585
vt 0.745158 0.502487
vt 0.472765 0.502487
vt 0.283349 0.502487
vt 0.674268 0.502487
vt 0.325917 0.502487
vt 0.630340 0.502487
vt 0.369783 0.502487
vt 0.577363 0.502487
vt 0.421388 0.502487
vt 0.525172 0.502487
vt 0.745158 0.992620
vt 0.674268 0.992620
vt 0.630340 0.992620
vt 0.577363 0.992620
vt 0.525172 0.992620
vt 0.472765 0.992620
vt 0.421388 0.992620
vt 0.369783 0.992620
vt 0.325917 0.992620
vt 0.283349 0.992620
vt 0.255051 0.992620
vt 0.255051 0.502487
vt 0.717073 0.992620
vt 0.717073 0.502487
vt 0.255051 0.009866
vt 0.283349 0.009866
vt 0.325917 0.009866
vt 0.369783 0.009866
vt 0.421388 0.009866
vt 0.472765 0.009866
vt 0.525172 0.009866
vt 0.577363 0.009866
vt 0.630340 0.009866
vt 0.674268 0.009866
vt 0.717073 0.009866
vt 0.745158 0.009866
vt 0.745158 0.135381
vt 0.747748 0.502487
vt 0.745158 0.868971
vt 0.736842 0.502487
vt 0.472765 0.135381
vt 0.499153 0.502487
vt 0.472765 0.868971
vt 0.446635 0.502487
vt 0.283349 0.135381
vt 0.306742 0.502487
vt 0.283349 0.868971
vt 0.263524 0.502487
vt 0.674268 0.135381
vt 0.693623 0.502487
vt 0.674268 0.868971
vt 0.654631 0.502487
vt 0.325917 0.135381
vt 0.345416 0.502487
vt 0.325917 0.868971
vt 0.630340 0.135381
vt 0.630340 0.868971
vt 0.603785 0.502487
vt 0.369783 0.135381
vt 0.396084 0.502487
vt 0.369783 0.868971
vt 0.577363 0.135381
vt 0.577363 0.868971
vt 0.551137 0.502487
vt 0.421388 0.135381
vt 0.421388 0.868971
vt 0.525172 0.135381
vt 0.525172 0.868971
vt 0.747748 0.992620
vt 0.745158 0.994852
vt 0.736842 0.992620
vt 0.693623 0.992620
vt 0.674268 0.994852
vt 0.654631 0.992620
vt 0.630340 0.994852
vt 0.603785 0.992620
vt 0.577363 0.994852
vt 0.551137 0.992620
vt 0.525172 0.994852
vt 0.499153 0.992620
vt 0.472765 0.994852
vt 0.446635 0.992620
vt 0.421388 0.994852
vt 0.396084 0.992620
vt 0.369783 0.994852
vt 0.345416 0.992620
vt 0.325917 0.994852
vt 0.306742 0.992620
vt 0.283349 0.994852
vt 0.263524 0.992620
vt 0.255051 0.868971
vt 0.255051 0.994852
vt 0.252252 0.992620
vt 0.255051 0.135381
vt 0.252252 0.502487
vt 0.717073 0.868971
vt 0.717073 0.994852
vt 0.717073 0.135381
vt 0.255051 0.005148
vt 0.263524 0.009866
vt 0.252252 0.009866
vt 0.283349 0.005148
vt 0.306742 0.009866
vt 0.325917 0.005148
vt 0.345416 0.009866
vt 0.369783 0.005148
vt 0.396084 0.009866
vt 0.421388 0.005148
vt 0.446635 0.009866
vt 0.472765 0.005148
vt 0.499153 0.009866
vt 0.525172 0.005148
vt 0.551137 0.009866
vt 0.577363 0.005148
vt 0.603785 0.009866
vt 0.630340 0.005148
vt 0.654631 0.009866
vt 0.674268 0.005148
vt 0.693623 0.009866
vt 0.717073 0.005148
vt 0.736842 0.009866
vt 0.745158 0.005148
vt 0.747748 0.009866
vn 0.596707 0.009646 0.802401
vn 0.432469 0.002070 0.901646
vn 0.321857 0.002190 0.946786
vn 0.454700 0.010307 0.890585
vn 0.000000 0.000000 1.000000
vn 0.000000 0.000000 1.000000
vn 0.000000 0.000000 1.000000
vn 0.196515 0.002263 0.980498
vn 0.286518 0.010518 0.958017
vn 0.000006 0.018118 0.999836
vn -0.369543 0.024100 0.928901
vn -0.271677 0.023373 0.962105
vn -0.000010 0.018199 0.999834
vn -0.000013 0.029779 0.999557
vn 0.000012 0.030295 0.999541
vn 0.000068 0.030316 0.999540
vn -0.164413 0.022207 0.986142
vn -0.000103 0.018116 0.999836
vn -0.594062 0.009640 0.804362
vn -0.490587 0.022158 0.871111
vn -0.406535 0.021350 0.913386
vn -0.451975 0.010287 0.891971
vn -0.000151 0.029778 0.999557
vn 0.000140 0.030295 0.999541
vn 0.000849 0.030317 0.999540
vn -0.271932 0.020273 0.962103
vn -0.284340 0.010484 0.958666
vn -0.000030 0.018118 0.999836
vn -0.473502 0.022787 0.880498
vn -0.355384 0.022632 0.934446
vn 0.000053 0.018199 0.999834
vn 0.000147 0.029778 0.999557
vn -0.000136 0.030295 0.999541
vn -0.000822 0.030317 0.999540
vn -0.218291 0.021854 0.975639
vn 0.000569 0.018116 0.999836
vn 0.476636 0.022738 0.878807
vn 0.357924 0.022602 0.933477
vn 0.000032 0.018118 0.999836
vn -0.000055 0.018199 0.999834
vn -0.000595 0.018116 0.999836
vn 0.219919 0.021838 0.975274
vn 0.000005 0.029779 0.999556
vn 0.376167 0.024234 0.926235
vn 0.279959 0.023546 0.959723
vn -0.000004 0.030295 0.999541
vn 0.171645 0.022393 0.984904
vn -0.000024 0.030315 0.999540
vn -0.377906 0.024184 0.925528
vn -0.280862 0.023503 0.959460
vn -0.000035 0.029778 0.999557
vn 0.000033 0.030295 0.999541
vn 0.000185 0.030316 0.999540
vn -0.171914 0.022356 0.984858
vn 0.000002 0.018118 0.999836
vn -0.368859 0.024101 0.929173
vn -0.271049 0.023370 0.962282
vn -0.000003 0.018199 0.999834
vn -0.163959 0.022203 0.986217
vn -0.000030 0.018116 0.999836
vn 0.382220 0.023948 0.923761
vn 0.281417 0.023283 0.959303
vn 0.170438 0.022155 0.985119
vn 0.373180 0.024042 0.927447
vn 0.274252 0.023332 0.961375
vn 0.165867 0.022178 0.985899
vn 0.095348 0.002236 0.995441
vn 0.144228 0.010054 0.989493
vn 0.000000 0.000000 1.000000
vn 0.000000 0.000000 1.000000
vn 0.061505 0.000000 0.998107
vn 0.095276 0.000000 0.995451
vn -0.106145 0.020378 0.994142
vn 0.001325 0.017519 0.999846
vn -0.001142 0.029635 0.999560
vn -0.000000 -0.000000 1.000000
vn -0.068777 -0.000000 0.997632
vn 0.000000 -0.000000 1.000000
vn 0.083590 0.020927 0.996280
vn -0.000029 0.029626 0.999561
vn 0.052794 0.000000 0.998605
vn 0.000000 0.000000 1.000000
vn -0.079233 0.020766 0.996640
vn -0.000062 0.017530 0.999846
vn -0.050991 0.000000 0.998699
vn 0.000000 0.000000 1.000000
vn 0.080141 0.020737 0.996568
vn 0.000082 0.029626 0.999561
vn 0.051641 0.000000 0.998666
vn 0.000000 0.000000 1.000000
vn -0.079472 0.020768 0.996621
vn -0.000214 0.017529 0.999846
vn -0.051118 -0.000000 0.998693
vn -0.000000 -0.000000 1.000000
vn 0.082401 0.020704 0.996384
vn 0.000227 0.029627 0.999561
vn 0.053101 -0.000000 0.998589
vn -0.000000 0.000000 1.000000
vn -0.083640 0.020891 0.996277
vn -0.001386 0.017519 0.999846
vn -0.052979 -0.000000 0.998596
vn 0.000000 0.000000 1.000000
vn 0.106941 0.020364 0.994057
vn 0.001182 0.029635 0.999560
vn 0.069338 0.000000 0.997593
vn 0.000000 0.000000 1.000000
vn -0.137283 0.018665 0.990356
vn -0.142969 0.010013 0.989676
vn -0.077516 -0.000000 0.996991
vn -0.094564 -0.000000 0.995519
vn 0.000000 0.000000 1.000000
vn -0.190361 0.002233 0.981712
vn -0.092275 0.002205 0.995731
vn 0.000000 0.000000 1.000000
vn -0.059512 -0.000000 0.998228
vn 0.000000 0.000000 1.000000
vn 0.000000 0.000000 1.000000
vn -0.420934 0.002053 0.907089
vn -0.312429 0.002166 0.949939
vn 0.000000 0.000000 1.000000
vn 0.272120 0.020291 0.962049
vn 0.137451 0.018681 0.990332
vn 0.077513 0.000000 0.996991
vn 0.490290 0.022177 0.871277
vn 0.406525 0.021368 0.913390
vn 0.000000 0.000000 1.000000
vn -0.513232 0.000001 0.858250
vn -0.492289 0.001863 0.870430
vn 0.000000 0.000000 1.000000
vn -0.689811 0.000001 0.723989
vn -0.676089 0.008683 0.736769
vn -0.614969 0.000001 0.788552
vn -0.528672 0.022076 0.848539
vn -0.000000 -0.000001 1.000000
vn -0.000723 0.026143 0.999658
vn 0.571905 -0.000001 0.820320
vn 0.552204 0.021792 0.833425
vn 0.000000 -0.000000 1.000000
vn 0.000065 0.017253 0.999851
vn -0.469781 0.000000 0.882783
vn -0.441681 0.023620 0.896861
vn 0.000000 0.000000 1.000000
vn -0.000169 0.026152 0.999658
vn 0.470620 0.000000 0.882336
vn 0.450037 0.023374 0.892704
vn -0.000000 -0.000000 1.000000
vn 0.000012 0.017253 0.999851
vn -0.456732 -0.000000 0.889604
vn -0.435683 0.023573 0.899792
vn 0.000000 0.000000 1.000000
vn -0.000063 0.026153 0.999658
vn 0.460430 -0.000000 0.887696
vn 0.440082 0.023503 0.897650
vn 0.000000 -0.000000 1.000000
vn 0.000003 0.017253 0.999851
vn -0.455831 0.000000 0.890066
vn -0.435040 0.023577 0.900102
vn -0.000000 0.000000 1.000000
vn 0.000022 0.026153 0.999658
vn 0.468492 -0.000000 0.883468
vn 0.439173 0.023676 0.898090
vn 0.000000 -0.000000 1.000000
vn -0.000062 0.017254 0.999851
vn -0.568763 0.000001 0.822501
vn -0.548807 0.021855 0.835663
vn -0.000000 0.000000 1.000000
vn 0.000702 0.026143 0.999658
vn 0.614955 -0.000000 0.788562
vn 0.528112 0.022095 0.848887
vn 0.692542 0.000000 0.721377
vn 0.678404 0.008681 0.734638
vn 0.525769 0.000000 0.850627
vn 0.504671 0.001874 0.863310
vn 0.000000 0.000000 1.000000
vn 0.000000 0.000000 1.000000
s 1
g pPlane1
usemtl initialShadingGroup
f 51/51/1 89/89/2 140/53/3 92/92/4
f 89/89/2 52/52/5 90/90/6 140/53/3
f 140/53/3 90/90/6 23/23/7 91/91/8
f 92/92/4 140/53/3 91/91/8 38/38/9
f 45/45/10 93/93/11 141/54/12 96/96/13
f 93/93/11 46/46/14 94/94/15 141/54/12
f 141/54/12 94/94/15 28/28/16 95/95/17
f 96/96/13 141/54/12 95/95/17 29/29/18
f 41/41/19 97/97/20 142/55/21 100/100/22
f 97/97/20 42/42/23 98/98/24 142/55/21
f 142/55/21 98/98/24 32/32/25 99/99/26
f 100/100/22 142/55/21 99/99/26 35/35/27
f 49/49/28 101/101/29 143/56/30 104/104/31
f 101/101/29 50/50/32 102/102/33 143/56/30
f 143/56/30 102/102/33 24/24/34 103/103/35
f 104/104/31 143/56/30 103/103/35 25/25/36
f 42/42/23 105/105/37 144/57/38 98/98/24
f 105/105/37 43/43/39 106/106/40 144/57/38
f 144/57/38 106/106/40 31/31/41 107/107/42
f 98/98/24 144/57/38 107/107/42 32/32/25
f 48/48/43 108/108/44 145/58/45 110/110/46
f 108/108/44 49/49/28 104/104/31 145/58/45
f 145/58/45 104/104/31 25/25/36 109/109/47
f 110/110/46 145/58/45 109/109/47 26/26/48
f 43/43/39 111/111/49 146/59/50 106/106/40
f 111/111/49 44/44/51 112/112/52 146/59/50
f 146/59/50 112/112/52 30/30/53 113/113/54
f 106/106/40 146/59/50 113/113/54 31/31/41
f 47/47/55 114/114/56 147/60/57 116/116/58
f 114/114/56 48/48/43 110/110/46 147/60/57
f 147/60/57 110/110/46 26/26/48 115/115/59
f 116/116/58 147/60/57 115/115/59 27/27/60
f 44/44/51 117/117/61 148/61/62 112/112/52
f 117/117/61 45/45/10 96/96/13 148/61/62
f 148/61/62 96/96/13 29/29/18 118/118/63
f 112/112/52 148/61/62 118/118/63 30/30/53
f 46/46/14 119/119/64 149/62/65 94/94/15
f 119/119/64 47/47/55 116/116/58 149/62/65
f 149/62/65 116/116/58 27/27/60 120/120/66
f 94/94/15 149/62/65 120/120/66 28/28/16
f 38/38/9 91/91/8 150/63/67 123/123/68
f 91/91/8 23/23/7 121/121/69 150/63/67
f 150/63/67 121/121/69 4/4/70 122/122/71
f 123/123/68 150/63/67 122/122/71 37/37/72
f 25/25/36 103/103/35 151/64/73 126/126/74
f 103/103/35 24/24/34 124/124/75 151/64/73
f 151/64/73 124/124/75 9/9/76 125/125/77
f 126/126/74 151/64/73 125/125/77 13/13/78
f 26/26/48 109/109/47 152/65/79 128/128/80
f 109/109/47 25/25/36 126/126/74 152/65/79
f 152/65/79 126/126/74 13/13/78 127/127/81
f 128/128/80 152/65/79 127/127/81 17/17/82
f 27/27/60 115/115/59 153/66/83 130/130/84
f 115/115/59 26/26/48 128/128/80 153/66/83
f 153/66/83 128/128/80 17/17/82 129/129/85
f 130/130/84 153/66/83 129/129/85 21/21/86
f 28/28/16 120/120/66 154/67/87 132/132/88
f 120/120/66 27/27/60 130/130/84 154/67/87
f 154/67/87 130/130/84 21/21/86 131/131/89
f 132/132/88 154/67/87 131/131/89 5/5/90
f 29/29/18 95/95/17 155/68/91 134/134/92
f 95/95/17 28/28/16 132/132/88 155/68/91
f 155/68/91 132/132/88 5/5/90 133/133/93
f 134/134/92 155/68/91 133/133/93 19/19/94
f 30/30/53 118/118/63 156/69/95 136/136/96
f 118/118/63 29/29/18 134/134/92 156/69/95
f 156/69/95 134/134/92 19/19/94 135/135/97
f 136/136/96 156/69/95 135/135/97 15/15/98
f 31/31/41 113/113/54 157/70/99 138/138/100
f 113/113/54 30/30/53 136/136/96 157/70/99
f 157/70/99 136/136/96 15/15/98 137/137/101
f 138/138/100 157/70/99 137/137/101 11/11/102
f 32/32/25 107/107/42 158/71/103 53/140/104
f 107/107/42 31/31/41 138/138/100 158/71/103
f 158/71/103 138/138/100 11/11/102 139/139/105
f 53/140/104 158/71/103 139/139/105 7/7/106
f 35/35/27 99/99/26 159/72/107 55/142/108
f 99/99/26 32/32/25 53/140/104 159/72/107
f 159/72/107 53/140/104 7/7/106 54/141/109
f 55/142/108 159/72/107 54/141/109 34/34/110
f 33/33/111 56/143/112 160/73/113 58/145/114
f 56/143/112 35/35/27 55/142/108 160/73/113
f 160/73/113 55/142/108 34/34/110 57/144/115
f 58/145/114 160/73/113 57/144/115 3/3/116
f 40/40/117 59/146/118 161/74/119 60/147/120
f 59/146/118 41/41/19 100/100/22 161/74/119
f 161/74/119 100/100/22 35/35/27 56/143/112
f 60/147/120 161/74/119 56/143/112 33/33/111
f 24/24/34 61/148/121 162/75/122 124/124/75
f 61/148/121 38/38/9 123/123/68 162/75/122
f 162/75/122 123/123/68 37/37/72 62/149/123
f 124/124/75 162/75/122 62/149/123 9/9/76
f 50/50/32 63/150/124 163/76/125 102/102/33
f 63/150/124 51/51/1 92/92/4 163/76/125
f 163/76/125 92/92/4 38/38/9 61/148/121
f 102/102/33 163/76/125 61/148/121 24/24/34
f 1/1/126 64/151/127 164/77/128 66/153/129
f 64/151/127 36/36/130 65/152/131 164/77/128
f 164/77/128 65/152/131 41/41/19 59/146/118
f 66/153/129 164/77/128 59/146/118 40/40/117
f 36/36/130 67/154/132 165/78/133 65/152/131
f 67/154/132 8/8/134 68/155/135 165/78/133
f 165/78/133 68/155/135 42/42/23 97/97/20
f 65/152/131 165/78/133 97/97/20 41/41/19
f 8/8/134 69/156/136 166/79/137 68/155/135
f 69/156/136 12/12/138 70/157/139 166/79/137
f 166/79/137 70/157/139 43/43/39 105/105/37
f 68/155/135 166/79/137 105/105/37 42/42/23
f 12/12/138 71/158/140 167/80/141 70/157/139
f 71/158/140 16/16/142 72/159/143 167/80/141
f 167/80/141 72/159/143 44/44/51 111/111/49
f 70/157/139 167/80/141 111/111/49 43/43/39
f 16/16/142 73/160/144 168/81/145 72/159/143
f 73/160/144 20/20/146 74/161/147 168/81/145
f 168/81/145 74/161/147 45/45/10 117/117/61
f 72/159/143 168/81/145 117/117/61 44/44/51
f 20/20/146 75/162/148 169/82/149 74/161/147
f 75/162/148 6/6/150 76/163/151 169/82/149
f 169/82/149 76/163/151 46/46/14 93/93/11
f 74/161/147 169/82/149 93/93/11 45/45/10
f 6/6/150 77/164/152 170/83/153 76/163/151
f 77/164/152 22/22/154 78/165/155 170/83/153
f 170/83/153 78/165/155 47/47/55 119/119/64
f 76/163/151 170/83/153 119/119/64 46/46/14
f 22/22/154 79/166/156 171/84/157 78/165/155
f 79/166/156 18/18/158 80/167/159 171/84/157
f 171/84/157 80/167/159 48/48/43 114/114/56
f 78/165/155 171/84/157 114/114/56 47/47/55
f 18/18/158 81/168/160 172/85/161 80/167/159
f 81/168/160 14/14/162 82/169/163 172/85/161
f 172/85/161 82/169/163 49/49/28 108/108/44
f 80/167/159 172/85/161 108/108/44 48/48/43
f 14/14/162 83/170/164 173/86/165 82/169/163
f 83/170/164 10/10/166 84/171/167 173/86/165
f 173/86/165 84/171/167 50/50/32 101/101/29
f 82/169/163 173/86/165 101/101/29 49/49/28
f 10/10/166 85/172/168 174/87/169 84/171/167
f 85/172/168 39/39/170 86/173/171 174/87/169
f 174/87/169 86/173/171 51/51/1 63/150/124
f 84/171/167 174/87/169 63/150/124 50/50/32
f 39/39/170 87/174/172 175/88/173 86/173/171
f 87/174/172 2/2/174 88/175/175 175/88/173
f 175/88/173 88/175/175 52/52/5 89/89/2
f 86/173/171 175/88/173 89/89/2 51/51/1
