# This file uses centimeters as units for non-parametric coordinates.

mtllib door2.mtl
g default
v -6.517232 -0.500000 0.499997
v 6.517232 -0.500000 0.499997
v -6.517232 11.851202 0.499997
v 6.517232 11.851202 0.499997
v -6.517232 11.851202 -0.499998
v 6.517232 11.851202 -0.499998
v -6.517232 -0.500000 -0.499998
v 6.517232 -0.500000 -0.499998
v 0.000000 11.851202 0.321101
v 0.000000 -0.500000 0.321101
v 0.000000 -0.500000 -0.321106
v 0.000000 11.851202 -0.321106
v -0.061911 11.851202 0.499996
v -0.061911 -0.500000 0.499997
v -0.061911 -0.500000 -0.499998
v -0.061911 11.851202 -0.499999
v 0.061911 11.851202 0.499997
v 0.061911 -0.500000 0.499997
v 0.061911 -0.500000 -0.499998
v 0.061911 11.851202 -0.499998
v 0.695235 11.162016 0.499995
v 0.695235 0.189186 0.499995
v 5.883908 0.189186 0.499995
v 5.883908 11.162016 0.499995
v -5.883908 0.189186 0.499995
v -0.695235 0.189186 0.499995
v -0.695235 11.162016 0.499995
v -5.883908 11.162016 0.499995
v 0.771922 11.076210 0.276671
v 0.771922 0.274991 0.276671
v 5.807221 0.274991 0.276671
v 5.807221 11.076210 0.276671
v -5.807221 0.274991 0.276671
v -0.771922 0.274991 0.276671
v -0.771922 11.076210 0.276671
v -5.807221 11.076210 0.276671
v 1.216684 10.667307 0.276671
v 1.216684 0.683895 0.276671
v 5.362459 0.683895 0.276671
v 5.362459 10.667307 0.276671
v -5.362459 0.683895 0.276671
v -1.216684 0.683895 0.276671
v -1.216684 10.667307 0.276671
v -5.362459 10.667307 0.276671
v 1.330204 10.529444 0.370312
v 1.330204 0.821758 0.370312
v 5.248939 0.821758 0.370312
v 5.248939 10.529444 0.370312
v -5.248939 0.821758 0.370312
v -1.330204 0.821758 0.370312
v -1.330204 10.529444 0.370312
v -5.248939 10.529444 0.370312
vt 0.324841 0.906296
vt 0.324841 0.306449
vt 0.087378 0.306449
vt 0.087378 0.906296
vt 0.409166 0.987968
vt 0.409166 0.224776
vt 0.405460 0.224776
vt 0.405460 0.987968
vt 0.723517 0.306449
vt 0.486054 0.306449
vt 0.486054 0.906296
vt 0.723517 0.906296
vt 0.401663 0.224776
vt 0.401663 0.987968
vt 0.363285 0.267362
vt 0.363285 0.945383
vt 0.010490 0.224776
vt 0.048868 0.267362
vt 0.010490 0.987968
vt 0.048868 0.945383
vt 0.800339 0.224776
vt 0.447544 0.267362
vt 0.761961 0.267362
vt 0.447544 0.945383
vt 0.800339 0.987968
vt 0.761961 0.945383
vt 0.358695 0.272664
vt 0.358695 0.940081
vt 0.053572 0.272664
vt 0.053572 0.940081
vt 0.452248 0.272664
vt 0.757371 0.272664
vt 0.452248 0.940081
vt 0.757371 0.940081
vt 0.331744 0.297930
vt 0.331744 0.914814
vt 0.080523 0.297930
vt 0.080523 0.914814
vt 0.479199 0.297930
vt 0.730420 0.297930
vt 0.479199 0.914814
vt 0.730420 0.914814
vt 0.896903 0.040724
vt 0.897013 0.094796
vt 0.229158 0.096151
vt 0.229048 0.042079
vt 0.897021 0.098758
vt 0.897130 0.152830
vt 0.229276 0.154184
vt 0.229166 0.100112
vt 0.897158 0.166465
vt 0.229303 0.167819
vt 0.229284 0.158146
vt 0.897139 0.156792
vt 0.897251 0.212408
vt 0.229396 0.213762
vt 0.229377 0.204089
vt 0.897232 0.202735
vt 0.843244 0.244646
vt 0.897317 0.244536
vt 0.897371 0.271315
vt 0.843299 0.271425
vt 0.852917 0.244369
vt 0.887643 0.244299
vt 0.843243 0.244132
vt 0.897315 0.244023
vt 0.897261 0.217243
vt 0.843189 0.217353
vt 0.843362 0.302680
vt 0.897434 0.302570
vt 0.897488 0.329349
vt 0.843416 0.329459
vt 0.853035 0.302403
vt 0.887760 0.302333
vt 0.843361 0.302166
vt 0.897433 0.302056
vt 0.897379 0.275277
vt 0.843307 0.275387
vt 0.228984 0.010523
vt 0.896839 0.009168
vt 0.896894 0.035948
vt 0.229039 0.037302
vt 0.897168 0.171300
vt 0.897222 0.198079
vt 0.229367 0.199434
vt 0.229313 0.172654
vn 0.000000 0.000000 1.000000
vn 0.000000 0.000000 1.000000
vn 0.000000 0.000000 1.000000
vn 0.000000 0.000000 1.000000
vn 0.000000 1.000000 0.000000
vn 0.000000 1.000000 0.000000
vn 0.000000 1.000000 0.000000
vn 0.000000 1.000000 0.000000
vn 0.000000 0.000000 -1.000000
vn 0.000000 0.000000 -1.000000
vn 0.000000 0.000000 -1.000000
vn 0.000000 0.000000 -1.000000
vn 0.000000 -1.000000 0.000000
vn 0.000000 -1.000000 0.000000
vn 0.000000 -1.000000 0.000000
vn 0.000000 -1.000000 0.000000
vn 1.000000 0.000000 0.000000
vn 1.000000 0.000000 0.000000
vn 1.000000 0.000000 0.000000
vn 1.000000 0.000000 0.000000
vn -1.000000 0.000000 0.000000
vn -1.000000 0.000000 0.000000
vn -1.000000 0.000000 0.000000
vn -1.000000 0.000000 0.000000
vn 0.945009 0.000000 0.327044
vn 0.945009 0.000000 0.327044
vn 0.945009 0.000000 0.327044
vn 0.945009 0.000000 0.327044
vn 0.000000 -1.000000 0.000000
vn 0.000000 -1.000000 0.000000
vn 0.000000 -1.000000 0.000000
vn 0.000000 -1.000000 0.000000
vn 0.945007 -0.000000 -0.327049
vn 0.945007 -0.000000 -0.327049
vn 0.945007 -0.000000 -0.327049
vn 0.945007 -0.000000 -0.327049
vn 0.000000 1.000000 0.000000
vn 0.000000 1.000000 0.000000
vn 0.000000 1.000000 0.000000
vn 0.000000 1.000000 0.000000
vn 0.000000 0.000000 1.000000
vn 0.000000 0.000000 1.000000
vn 0.000000 0.000000 1.000000
vn 0.000000 0.000000 1.000000
vn 0.000000 -1.000000 0.000000
vn 0.000000 -1.000000 0.000000
vn 0.000000 -1.000000 0.000000
vn 0.000000 -1.000000 0.000000
vn -0.000000 -0.000000 -1.000000
vn -0.000000 -0.000000 -1.000000
vn -0.000000 -0.000000 -1.000000
vn -0.000000 -0.000000 -1.000000
vn 0.000000 1.000000 0.000000
vn 0.000000 1.000000 0.000000
vn 0.000000 1.000000 0.000000
vn 0.000000 1.000000 0.000000
vn -0.945010 0.000000 0.327043
vn -0.945010 0.000000 0.327043
vn -0.945010 0.000000 0.327043
vn -0.945010 0.000000 0.327043
vn 0.000000 -1.000000 0.000000
vn 0.000000 -1.000000 0.000000
vn 0.000000 -1.000000 0.000000
vn 0.000000 -1.000000 0.000000
vn -0.945007 0.000000 -0.327049
vn -0.945007 0.000000 -0.327049
vn -0.945007 0.000000 -0.327049
vn -0.945007 0.000000 -0.327049
vn 0.000000 1.000000 0.000000
vn 0.000000 1.000000 0.000000
vn 0.000000 1.000000 0.000000
vn 0.000000 1.000000 0.000000
vn 0.000000 -0.000003 1.000000
vn 0.000000 0.000003 1.000000
vn 0.000002 0.000001 1.000000
vn 0.000002 -0.000001 1.000000
vn -0.000000 0.000003 1.000000
vn -0.000002 0.000001 1.000000
vn -0.000000 -0.000003 1.000000
vn -0.000002 -0.000001 1.000000
vn 0.000000 0.000003 1.000000
vn -0.000000 0.000003 1.000000
vn -0.000002 0.000001 1.000000
vn 0.000002 0.000001 1.000000
vn -0.000000 -0.000002 1.000000
vn -0.000002 -0.000000 1.000000
vn 0.000000 -0.000002 1.000000
vn 0.000002 -0.000000 1.000000
vn 0.945791 0.000000 0.324775
vn 0.945791 0.000000 0.324774
vn 0.945791 0.000000 0.324774
vn 0.945791 0.000000 0.324774
vn 0.000000 0.933470 0.358656
vn 0.000000 0.933470 0.358656
vn 0.000000 0.933470 0.358656
vn 0.000000 0.933470 0.358656
vn -0.945792 0.000000 0.324774
vn -0.945792 0.000000 0.324774
vn -0.945792 0.000000 0.324774
vn -0.945792 0.000000 0.324774
vn 0.000000 -0.933470 0.358656
vn 0.000000 -0.933470 0.358656
vn 0.000000 -0.933470 0.358656
vn 0.000000 -0.933470 0.358656
vn 0.000000 0.933470 0.358656
vn 0.000000 0.933470 0.358656
vn 0.000000 0.933470 0.358656
vn 0.000000 0.933470 0.358656
vn -0.945791 0.000000 0.324775
vn -0.945791 0.000000 0.324775
vn -0.945791 0.000000 0.324775
vn -0.945791 0.000000 0.324775
vn 0.000000 -0.933470 0.358656
vn 0.000000 -0.933470 0.358656
vn 0.000000 -0.933470 0.358656
vn 0.000000 -0.933470 0.358656
vn 0.945792 0.000000 0.324774
vn 0.945792 0.000000 0.324774
vn 0.945792 0.000000 0.324774
vn 0.945792 0.000000 0.324774
vn 0.000000 0.000000 1.000000
vn 0.000000 0.000000 1.000000
vn 0.000000 0.000000 1.000000
vn 0.000000 0.000000 1.000000
vn -0.000000 0.000000 1.000000
vn -0.000000 0.000000 1.000000
vn -0.000000 0.000000 1.000000
vn -0.000000 0.000000 1.000000
vn 0.000000 0.000000 1.000000
vn -0.000000 0.000000 1.000000
vn -0.000000 0.000000 1.000000
vn 0.000000 0.000000 1.000000
vn -0.000000 0.000000 1.000000
vn -0.000000 0.000000 1.000000
vn 0.000000 0.000000 1.000000
vn 0.000000 0.000000 1.000000
vn -0.636328 0.000000 0.771418
vn -0.636328 0.000000 0.771418
vn -0.636328 0.000000 0.771418
vn -0.636328 0.000000 0.771418
vn 0.000000 -0.561873 0.827224
vn 0.000000 -0.561873 0.827224
vn 0.000000 -0.561873 0.827224
vn 0.000000 -0.561873 0.827224
vn 0.636328 0.000000 0.771418
vn 0.636328 0.000000 0.771418
vn 0.636328 0.000000 0.771418
vn 0.636328 0.000000 0.771418
vn 0.000000 0.561873 0.827223
vn 0.000000 0.561873 0.827223
vn 0.000000 0.561873 0.827223
vn 0.000000 0.561873 0.827223
vn 0.000000 -0.561873 0.827224
vn 0.000000 -0.561873 0.827224
vn 0.000000 -0.561873 0.827224
vn 0.000000 -0.561873 0.827224
vn 0.636328 0.000000 0.771419
vn 0.636328 0.000000 0.771419
vn 0.636328 0.000000 0.771419
vn 0.636328 0.000000 0.771419
vn 0.000000 0.561874 0.827223
vn 0.000000 0.561874 0.827223
vn 0.000000 0.561874 0.827223
vn 0.000000 0.561874 0.827223
vn -0.636328 0.000000 0.771418
vn -0.636328 0.000000 0.771418
vn -0.636328 0.000000 0.771418
vn -0.636328 0.000000 0.771418
s off
g pCube1
usemtl initialShadingGroup
f 45/1/1 46/2/2 47/3/3 48/4/4
f 20/59/5 17/60/6 4/61/7 6/62/8
f 19/79/9 20/80/10 6/81/11 8/82/12
f 18/69/13 19/70/14 8/71/15 2/72/16
f 2/43/17 8/44/18 6/45/19 4/46/20
f 7/47/21 1/48/22 3/49/23 5/50/24
f 13/5/25 14/6/26 10/7/27 9/8/28
f 14/75/29 15/76/30 11/74/31 10/73/32
f 15/51/33 16/52/34 12/53/35 11/54/36
f 16/65/37 13/66/38 9/64/39 12/63/40
f 49/9/41 50/10/42 51/11/43 52/12/44
f 7/77/45 15/76/46 14/75/47 1/78/48
f 5/83/49 16/84/50 15/85/51 7/86/52
f 3/67/53 13/66/54 16/65/55 5/68/56
f 9/8/57 10/7/58 18/13/59 17/14/60
f 10/73/61 11/74/62 19/70/63 18/69/64
f 11/55/65 12/56/66 20/57/67 19/58/68
f 12/63/69 9/64/70 17/60/71 20/59/72
s 1
f 17/14/73 18/13/74 22/15/75 21/16/76
f 18/13/74 2/17/77 23/18/78 22/15/75
f 2/17/77 4/19/79 24/20/80 23/18/78
f 4/19/79 17/14/73 21/16/76 24/20/80
s 2
f 1/21/81 14/6/82 26/22/83 25/23/84
f 14/6/82 13/5/85 27/24/86 26/22/83
f 13/5/85 3/25/87 28/26/88 27/24/86
f 3/25/87 1/21/81 25/23/84 28/26/88
s off
f 21/16/89 22/15/90 30/27/91 29/28/92
f 22/15/93 23/18/94 31/29/95 30/27/96
f 23/18/97 24/20/98 32/30/99 31/29/100
f 24/20/101 21/16/102 29/28/103 32/30/104
f 25/23/105 26/22/106 34/31/107 33/32/108
f 26/22/109 27/24/110 35/33/111 34/31/112
f 27/24/113 28/26/114 36/34/115 35/33/116
f 28/26/117 25/23/118 33/32/119 36/34/120
s 3
f 29/28/121 30/27/122 38/35/123 37/36/124
f 30/27/122 31/29/125 39/37/126 38/35/123
f 31/29/125 32/30/127 40/38/128 39/37/126
f 32/30/127 29/28/121 37/36/124 40/38/128
s 4
f 33/32/129 34/31/130 42/39/131 41/40/132
f 34/31/130 35/33/133 43/41/134 42/39/131
f 35/33/133 36/34/135 44/42/136 43/41/134
f 36/34/135 33/32/129 41/40/132 44/42/136
s off
f 37/36/137 38/35/138 46/2/139 45/1/140
f 38/35/141 39/37/142 47/3/143 46/2/144
f 39/37/145 40/38/146 48/4/147 47/3/148
f 40/38/149 37/36/150 45/1/151 48/4/152
f 41/40/153 42/39/154 50/10/155 49/9/156
f 42/39/157 43/41/158 51/11/159 50/10/160
f 43/41/161 44/42/162 52/12/163 51/11/164
f 44/42/165 41/40/166 49/9/167 52/12/168
