# This file uses centimeters as units for non-parametric coordinates.

mtllib stand3.mtl
g default
v -2.057265 -0.500000 2.057265
v 2.057265 -0.500000 2.057265
v -1.452246 0.103393 1.452246
v 1.452246 0.103393 1.452246
v -1.452246 0.103393 -1.452246
v 1.452246 0.103393 -1.452246
v -2.057265 -0.500000 -2.057265
v 2.057265 -0.500000 -2.057265
v -2.057265 -0.259981 2.057265
v -2.057265 -0.259981 -2.057265
v 2.057265 -0.259981 -2.057265
v 2.057265 -0.259981 2.057265
v -1.452246 0.164131 1.452246
v 1.452246 0.164131 1.452246
v 1.452246 0.164131 -1.452246
v -1.452246 0.164131 -1.452246
v -1.669041 0.243103 1.669041
v 1.669041 0.243103 1.669041
v 1.669041 0.243103 -1.669041
v -1.669041 0.243103 -1.669041
v -1.669041 0.273877 1.669041
v 1.669041 0.273877 1.669041
v 1.669041 0.273877 -1.669041
v -1.669041 0.273877 -1.669041
v -1.409962 0.378522 1.409962
v 1.409962 0.378522 1.409962
v 1.409962 0.378522 -1.409962
v -1.409962 0.378522 -1.409962
v -1.409962 0.715898 1.409962
v 1.409962 0.715898 1.409962
v 1.409962 0.715898 -1.409962
v -1.409962 0.715898 -1.409962
v -1.234040 0.807399 1.234040
v 1.234040 0.807399 1.234040
v 1.234040 0.807399 -1.234040
v -1.234040 0.807399 -1.234040
v -0.463111 0.807399 0.463111
v 0.463111 0.807399 0.463111
v 0.463111 0.807399 -0.463111
v -0.463111 0.807399 -0.463111
v -0.463111 4.835509 0.463111
v 0.463111 4.835509 0.463111
v 0.463111 4.835509 -0.463111
v -0.463111 4.835509 -0.463111
v -3.495896 4.983476 1.708377
v 3.495896 4.983476 1.708377
v 3.495896 4.983476 -1.708377
v -3.495896 4.983476 -1.708377
v -3.705629 5.131253 1.810870
v 3.705629 5.131253 1.810870
v 3.705629 5.131253 -1.810870
v -3.705629 5.131253 -1.810870
v -3.705629 5.315586 1.810870
v 3.705629 5.315586 1.810870
v 3.705629 8.296975 -1.810870
v -3.705629 8.296975 -1.810870
v -3.705629 5.315586 1.810870
v 3.705629 5.315586 1.810870
v 3.705629 8.296975 -1.810870
v -3.705629 8.296975 -1.810870
v -3.705629 5.463898 1.810870
v 3.705629 5.463898 1.810870
v 3.705629 8.445288 -1.810870
v -3.705629 8.445288 -1.810870
v -3.310147 5.550298 1.647227
v 3.310147 5.550298 1.647227
v 3.310147 8.358887 -1.647227
v -3.310147 8.358887 -1.647227
v -3.310147 5.402455 1.647227
v 3.310147 5.402455 1.647227
v 3.310147 8.211044 -1.647227
v -3.310147 8.211044 -1.647227
vt 0.732665 0.051845
vt 0.950169 0.051845
vt 0.950169 0.269350
vt 0.732665 0.269350
vt 0.732665 0.051845
vt 0.950169 0.051845
vt 0.950169 0.269350
vt 0.732665 0.269350
vt 0.029115 0.001714
vt 0.355308 0.001714
vt 0.355308 0.022211
vt 0.029115 0.022211
vt 0.307343 0.073314
vt 0.077080 0.073314
vt 0.307343 0.083494
vt 0.077080 0.083494
vt 0.324531 0.097481
vt 0.059893 0.097481
vt 0.324531 0.107519
vt 0.059893 0.107519
vt 0.303991 0.130951
vt 0.080432 0.130951
vt 0.303991 0.155378
vt 0.080432 0.155378
vt 0.290044 0.168101
vt 0.094379 0.168101
vt 0.029768 0.171448
vt 0.355961 0.171448
vt 0.355961 0.191945
vt 0.029768 0.191945
vt 0.307997 0.243048
vt 0.077733 0.243048
vt 0.307997 0.253228
vt 0.077733 0.253228
vt 0.325184 0.267215
vt 0.060546 0.267215
vt 0.325184 0.277253
vt 0.060546 0.277253
vt 0.304644 0.300685
vt 0.081085 0.300685
vt 0.304644 0.325112
vt 0.081085 0.325112
vt 0.290697 0.337835
vt 0.095032 0.337835
vt 0.102437 0.859830
vt 0.163477 0.859830
vt 0.163477 0.920869
vt 0.102437 0.920869
vt 0.037312 0.985661
vt 0.037312 0.796515
vt 0.096394 0.855597
vt 0.096394 0.926580
vt 0.226458 0.796515
vt 0.167377 0.855597
vt 0.226458 0.985661
vt 0.167377 0.926580
vt 0.029035 0.341571
vt 0.355229 0.341571
vt 0.355229 0.362864
vt 0.029035 0.362864
vt 0.307264 0.412995
vt 0.077000 0.412995
vt 0.307264 0.423036
vt 0.077000 0.423036
vt 0.324451 0.437397
vt 0.059813 0.437397
vt 0.324451 0.447435
vt 0.059813 0.447435
vt 0.303911 0.470170
vt 0.080352 0.470170
vt 0.303911 0.495535
vt 0.080352 0.495535
vt 0.289965 0.507468
vt 0.094299 0.507468
vt 0.355268 0.533362
vt 0.029074 0.533362
vt 0.029074 0.512864
vt 0.355268 0.512864
vt 0.307303 0.584464
vt 0.077039 0.584464
vt 0.307303 0.594644
vt 0.077039 0.594644
vt 0.324490 0.608631
vt 0.059852 0.608631
vt 0.324490 0.618669
vt 0.059852 0.618669
vt 0.303950 0.642101
vt 0.080391 0.642101
vt 0.303950 0.666529
vt 0.080391 0.666529
vt 0.290004 0.679251
vt 0.094338 0.679251
vt 0.312368 0.746475
vt 0.368030 0.746475
vt 0.368030 0.983622
vt 0.312368 0.983622
vt 0.436691 0.746475
vt 0.492353 0.746475
vt 0.492353 0.983622
vt 0.436691 0.983622
vt 0.250029 0.746475
vt 0.305692 0.746475
vt 0.305692 0.983622
vt 0.250029 0.983622
vt 0.430192 0.983622
vt 0.374530 0.983622
vt 0.374530 0.746475
vt 0.430192 0.746475
vt 0.376548 0.617209
vt 0.546740 0.617209
vt 0.551845 0.626305
vt 0.371443 0.626305
vt 0.551845 0.734856
vt 0.371443 0.635943
vt 0.575464 0.617209
vt 0.745656 0.617209
vt 0.750761 0.626305
vt 0.570359 0.626305
vt 0.750761 0.635943
vt 0.570359 0.734856
vt 0.372314 0.638457
vt 0.552716 0.737799
vt 0.552716 0.745446
vt 0.372314 0.646105
vt 0.569383 0.737799
vt 0.749785 0.638457
vt 0.749785 0.646105
vt 0.569383 0.745446
vt 0.633824 0.923135
vt 0.633824 0.873303
vt 0.694004 0.813123
vt 0.694004 0.983315
vt 0.583992 0.873303
vt 0.523812 0.813123
vt 0.583992 0.923135
vt 0.523812 0.983315
vt 0.716717 0.969922
vt 0.716717 0.783295
vt 0.721462 0.777697
vt 0.721462 0.975520
vt 0.733969 0.777697
vt 0.733969 0.975520
vt 0.762505 0.968233
vt 0.762505 0.785119
vt 0.771942 0.779626
vt 0.771942 0.973726
vt 0.894897 0.779626
vt 0.894897 0.973726
vt 0.737667 0.975520
vt 0.737667 0.777697
vt 0.746988 0.777697
vt 0.746988 0.975520
vt 0.908098 0.780421
vt 0.908098 0.974521
vt 0.899965 0.974521
vt 0.899965 0.780421
vt 0.769372 0.347453
vt 0.589467 0.569658
vt 0.589467 0.550771
vt 0.769372 0.328566
vt 0.953856 0.569658
vt 0.773951 0.347453
vt 0.773951 0.328566
vt 0.953856 0.550771
vt 0.387238 0.328566
vt 0.585016 0.328566
vt 0.574462 0.339604
vt 0.397792 0.339604
vt 0.585016 0.572846
vt 0.574462 0.561808
vt 0.387238 0.572846
vt 0.397792 0.561808
vt 0.397792 0.542922
vt 0.574462 0.542922
vt 0.951876 0.663921
vt 0.951876 0.570924
vt 0.987756 0.570924
vt 0.987756 0.663921
vt 0.402219 0.047081
vt 0.568912 0.047081
vt 0.568912 0.284227
vt 0.402219 0.284227
vn 0.000000 0.000000 1.000000
vn 0.000000 0.000000 1.000000
vn 0.000000 0.000000 1.000000
vn 0.000000 0.000000 1.000000
vn 0.000000 0.760992 0.648761
vn 0.000000 0.760992 0.648761
vn 0.000000 0.760992 0.648761
vn 0.000000 0.760992 0.648761
vn 0.000000 0.000000 -1.000000
vn 0.000000 0.000000 -1.000000
vn 0.000000 0.000000 -1.000000
vn 0.000000 0.000000 -1.000000
vn 0.000000 -1.000000 0.000000
vn 0.000000 -1.000000 0.000000
vn 0.000000 -1.000000 0.000000
vn 0.000000 -1.000000 0.000000
vn 1.000000 0.000000 0.000000
vn 1.000000 0.000000 0.000000
vn 1.000000 0.000000 0.000000
vn 1.000000 0.000000 0.000000
vn -1.000000 0.000000 0.000000
vn -1.000000 0.000000 0.000000
vn -1.000000 0.000000 0.000000
vn -1.000000 0.000000 0.000000
vn -0.514874 0.857266 0.000000
vn -0.514874 0.857266 0.000000
vn -0.514874 0.857266 0.000000
vn -0.514874 0.857266 0.000000
vn 0.000000 0.857266 -0.514874
vn 0.000000 0.857266 -0.514874
vn 0.000000 0.857266 -0.514874
vn 0.000000 0.857266 -0.514874
vn 0.514874 0.857266 0.000000
vn 0.514874 0.857266 0.000000
vn 0.514874 0.857266 0.000000
vn 0.514874 0.857266 0.000000
vn 0.000000 0.857266 0.514874
vn 0.000000 0.857266 0.514874
vn 0.000000 0.857266 0.514874
vn 0.000000 0.857266 0.514874
vn 0.000000 0.000000 1.000000
vn 0.000000 0.000000 1.000000
vn 0.000000 0.000000 1.000000
vn 0.000000 0.000000 1.000000
vn 1.000000 0.000000 0.000000
vn 1.000000 0.000000 0.000000
vn 1.000000 0.000000 0.000000
vn 1.000000 0.000000 0.000000
vn 0.000000 0.000000 -1.000000
vn 0.000000 0.000000 -1.000000
vn 0.000000 0.000000 -1.000000
vn 0.000000 0.000000 -1.000000
vn -1.000000 0.000000 0.000000
vn -1.000000 0.000000 0.000000
vn -1.000000 0.000000 0.000000
vn -1.000000 0.000000 0.000000
vn 0.000000 -0.939601 0.342273
vn 0.000000 -0.939601 0.342273
vn 0.000000 -0.939601 0.342273
vn 0.000000 -0.939601 0.342273
vn 0.342273 -0.939601 0.000000
vn 0.342273 -0.939601 0.000000
vn 0.342273 -0.939601 0.000000
vn 0.342273 -0.939601 0.000000
vn 0.000000 -0.939601 -0.342273
vn 0.000000 -0.939601 -0.342273
vn 0.000000 -0.939601 -0.342273
vn 0.000000 -0.939601 -0.342273
vn -0.342273 -0.939601 0.000000
vn -0.342273 -0.939601 0.000000
vn -0.342273 -0.939601 0.000000
vn -0.342273 -0.939601 0.000000
vn 0.000000 0.000000 1.000000
vn 0.000000 0.000000 1.000000
vn 0.000000 0.000000 1.000000
vn 0.000000 0.000000 1.000000
vn 1.000000 0.000000 0.000000
vn 1.000000 0.000000 0.000000
vn 1.000000 0.000000 0.000000
vn 1.000000 0.000000 0.000000
vn 0.000000 0.000000 -1.000000
vn 0.000000 0.000000 -1.000000
vn 0.000000 0.000000 -1.000000
vn 0.000000 0.000000 -1.000000
vn -1.000000 0.000000 0.000000
vn -1.000000 0.000000 0.000000
vn -1.000000 0.000000 0.000000
vn -1.000000 0.000000 0.000000
vn 0.000000 0.927220 0.374517
vn 0.000000 0.927220 0.374517
vn 0.000000 0.927220 0.374517
vn 0.000000 0.927220 0.374517
vn 0.374517 0.927220 0.000000
vn 0.374517 0.927220 0.000000
vn 0.374517 0.927220 0.000000
vn 0.374517 0.927220 0.000000
vn 0.000000 0.927220 -0.374517
vn 0.000000 0.927220 -0.374517
vn 0.000000 0.927220 -0.374517
vn 0.000000 0.927220 -0.374517
vn -0.374517 0.927220 0.000000
vn -0.374517 0.927220 0.000000
vn -0.374517 0.927220 0.000000
vn -0.374517 0.927220 0.000000
vn 0.000000 0.000000 1.000000
vn 0.000000 0.000000 1.000000
vn 0.000000 0.000000 1.000000
vn 0.000000 0.000000 1.000000
vn 1.000000 0.000000 0.000000
vn 1.000000 0.000000 0.000000
vn 1.000000 0.000000 0.000000
vn 1.000000 0.000000 0.000000
vn 0.000000 0.000000 -1.000000
vn 0.000000 0.000000 -1.000000
vn 0.000000 0.000000 -1.000000
vn 0.000000 0.000000 -1.000000
vn -1.000000 0.000000 0.000000
vn -1.000000 0.000000 0.000000
vn -1.000000 0.000000 0.000000
vn -1.000000 0.000000 0.000000
vn 0.000000 0.887171 0.461442
vn 0.000000 0.887171 0.461442
vn 0.000000 0.887171 0.461442
vn 0.000000 0.887171 0.461442
vn 0.461442 0.887171 0.000000
vn 0.461442 0.887171 0.000000
vn 0.461442 0.887171 0.000000
vn 0.461442 0.887171 0.000000
vn 0.000000 0.887171 -0.461442
vn 0.000000 0.887171 -0.461442
vn 0.000000 0.887171 -0.461442
vn 0.000000 0.887171 -0.461442
vn -0.461442 0.887171 0.000000
vn -0.461442 0.887171 0.000000
vn -0.461442 0.887171 0.000000
vn -0.461442 0.887171 0.000000
vn 0.000000 1.000000 -0.000000
vn 0.000000 1.000000 -0.000000
vn 0.000000 1.000000 -0.000000
vn 0.000000 1.000000 -0.000000
vn 0.000000 1.000000 0.000000
vn 0.000000 1.000000 0.000000
vn 0.000000 1.000000 0.000000
vn 0.000000 1.000000 0.000000
vn 0.000000 1.000000 0.000000
vn 0.000000 1.000000 0.000000
vn 0.000000 1.000000 0.000000
vn 0.000000 1.000000 0.000000
vn 0.000000 1.000000 0.000000
vn 0.000000 1.000000 0.000000
vn 0.000000 1.000000 0.000000
vn 0.000000 1.000000 0.000000
vn 0.000000 0.000000 1.000000
vn 0.000000 0.000000 1.000000
vn 0.000000 0.000000 1.000000
vn 0.000000 0.000000 1.000000
vn 1.000000 0.000000 0.000000
vn 1.000000 0.000000 0.000000
vn 1.000000 0.000000 0.000000
vn 1.000000 0.000000 0.000000
vn 0.000000 0.000000 -1.000000
vn 0.000000 0.000000 -1.000000
vn 0.000000 0.000000 -1.000000
vn 0.000000 0.000000 -1.000000
vn -1.000000 0.000000 0.000000
vn -1.000000 0.000000 0.000000
vn -1.000000 0.000000 0.000000
vn -1.000000 0.000000 0.000000
vn 0.000000 -0.993014 0.117994
vn 0.000000 -0.993014 0.117994
vn 0.000000 -0.993014 0.117994
vn 0.000000 -0.993014 0.117994
vn 0.048731 -0.998812 0.000000
vn 0.048731 -0.998812 0.000000
vn 0.048731 -0.998812 0.000000
vn 0.048731 -0.998812 0.000000
vn 0.000000 -0.993014 -0.117994
vn 0.000000 -0.993014 -0.117994
vn 0.000000 -0.993014 -0.117994
vn 0.000000 -0.993014 -0.117994
vn -0.048731 -0.998812 0.000000
vn -0.048731 -0.998812 0.000000
vn -0.048731 -0.998812 0.000000
vn -0.048731 -0.998812 0.000000
vn 0.000000 -0.569909 0.821708
vn 0.000000 -0.569909 0.821708
vn 0.000000 -0.569909 0.821708
vn 0.000000 -0.569909 0.821708
vn 0.575984 -0.817461 0.000000
vn 0.575984 -0.817461 0.000000
vn 0.575984 -0.817461 0.000000
vn 0.575984 -0.817461 0.000000
vn 0.000000 -0.569909 -0.821708
vn 0.000000 -0.569909 -0.821708
vn 0.000000 -0.569909 -0.821708
vn 0.000000 -0.569909 -0.821708
vn -0.575984 -0.817461 0.000000
vn -0.575984 -0.817461 0.000000
vn -0.575984 -0.817461 0.000000
vn -0.575984 -0.817461 0.000000
vn 0.000000 0.000000 1.000000
vn 0.000000 0.000000 1.000000
vn 0.000000 0.000000 1.000000
vn 0.000000 0.000000 1.000000
vn 1.000000 0.000000 0.000000
vn 1.000000 0.000000 0.000000
vn 1.000000 0.000000 0.000000
vn 1.000000 0.000000 0.000000
vn 0.000000 0.000000 -1.000000
vn 0.000000 0.000000 -1.000000
vn 0.000000 0.000000 -1.000000
vn 0.000000 0.000000 -1.000000
vn -1.000000 0.000000 0.000000
vn -1.000000 0.000000 0.000000
vn -1.000000 0.000000 0.000000
vn -1.000000 0.000000 0.000000
vn 0.000000 0.000000 0.000000
vn 0.000000 0.000000 0.000000
vn 0.000000 0.000000 0.000000
vn 0.000000 0.000000 0.000000
vn 0.000000 0.000000 0.000000
vn 0.000000 0.000000 0.000000
vn 0.000000 0.000000 0.000000
vn 0.000000 0.000000 0.000000
vn 0.000000 0.000000 0.000000
vn 0.000000 0.000000 0.000000
vn 0.000000 0.000000 0.000000
vn 0.000000 0.000000 0.000000
vn 0.000000 0.000000 0.000000
vn 0.000000 0.000000 0.000000
vn 0.000000 0.000000 0.000000
vn 0.000000 0.000000 0.000000
vn 0.000000 0.000000 1.000000
vn 0.000000 0.000000 1.000000
vn 0.000000 0.000000 1.000000
vn 0.000000 0.000000 1.000000
vn 1.000000 0.000000 0.000000
vn 1.000000 0.000000 0.000000
vn 1.000000 0.000000 0.000000
vn 1.000000 0.000000 0.000000
vn 0.000000 0.000000 -1.000000
vn 0.000000 0.000000 -1.000000
vn 0.000000 0.000000 -1.000000
vn 0.000000 0.000000 -1.000000
vn -1.000000 0.000000 0.000000
vn -1.000000 0.000000 0.000000
vn -1.000000 0.000000 0.000000
vn -1.000000 0.000000 0.000000
vn 0.000000 0.884312 0.466897
vn 0.000000 0.884312 0.466897
vn 0.000000 0.884312 0.466897
vn 0.000000 0.884312 0.466897
vn -0.000001 0.766775 0.641916
vn -0.000001 0.766775 0.641916
vn -0.000001 0.766775 0.641916
vn -0.000001 0.766775 0.641916
vn 0.000000 0.884308 0.466903
vn 0.000000 0.884308 0.466903
vn 0.000000 0.884308 0.466903
vn 0.000000 0.884308 0.466903
vn 0.000001 0.766775 0.641916
vn 0.000001 0.766775 0.641916
vn 0.000001 0.766775 0.641916
vn 0.000001 0.766775 0.641916
vn 0.000000 0.000000 -1.000000
vn 0.000000 0.000000 -1.000000
vn 0.000000 0.000000 -1.000000
vn 0.000000 0.000000 -1.000000
vn -1.000000 0.000000 0.000000
vn -1.000000 0.000000 0.000000
vn -1.000000 0.000000 0.000000
vn -1.000000 0.000000 0.000000
vn 0.000000 0.000000 1.000000
vn 0.000000 0.000000 1.000000
vn 0.000000 0.000000 1.000000
vn 0.000000 0.000000 1.000000
vn 1.000000 0.000000 0.000000
vn 1.000000 0.000000 0.000000
vn 1.000000 0.000000 0.000000
vn 1.000000 0.000000 0.000000
s off
g pCube1
usemtl initialShadingGroup
f 1/57/1 2/58/2 12/59/3 9/60/4
f 69/179/5 70/180/6 71/181/7 72/182/8
f 10/75/9 11/76/10 8/77/11 7/78/12
f 7/45/13 8/46/14 2/47/15 1/48/16
f 2/9/17 8/10/18 11/11/19 12/12/20
f 7/27/21 1/28/22 9/29/23 10/30/24
f 10/30/25 9/29/26 3/31/27 5/32/28
f 5/79/29 6/80/30 11/76/31 10/75/32
f 12/12/33 11/11/34 6/13/35 4/14/36
f 9/60/37 12/59/38 4/61/39 3/62/40
f 3/62/41 4/61/42 14/63/43 13/64/44
f 4/14/45 6/13/46 15/15/47 14/16/48
f 6/80/49 5/79/50 16/81/51 15/82/52
f 5/32/53 3/31/54 13/33/55 16/34/56
f 13/64/57 14/63/58 18/65/59 17/66/60
f 14/16/61 15/15/62 19/17/63 18/18/64
f 15/82/65 16/81/66 20/83/67 19/84/68
f 16/34/69 13/33/70 17/35/71 20/36/72
f 17/66/73 18/65/74 22/67/75 21/68/76
f 18/18/77 19/17/78 23/19/79 22/20/80
f 19/84/81 20/83/82 24/85/83 23/86/84
f 20/36/85 17/35/86 21/37/87 24/38/88
f 21/68/89 22/67/90 26/69/91 25/70/92
f 22/20/93 23/19/94 27/21/95 26/22/96
f 23/86/97 24/85/98 28/87/99 27/88/100
f 24/38/101 21/37/102 25/39/103 28/40/104
f 25/70/105 26/69/106 30/71/107 29/72/108
f 26/22/109 27/21/110 31/23/111 30/24/112
f 27/88/113 28/87/114 32/89/115 31/90/116
f 28/40/117 25/39/118 29/41/119 32/42/120
f 29/72/121 30/71/122 34/73/123 33/74/124
f 30/24/125 31/23/126 35/25/127 34/26/128
f 31/90/129 32/89/130 36/91/131 35/92/132
f 32/42/133 29/41/134 33/43/135 36/44/136
f 33/49/137 34/50/138 38/51/139 37/52/140
f 34/50/141 35/53/142 39/54/143 38/51/144
f 35/53/145 36/55/146 40/56/147 39/54/148
f 36/55/149 33/49/150 37/52/151 40/56/152
f 37/101/153 38/102/154 42/103/155 41/104/156
f 38/93/157 39/94/158 43/95/159 42/96/160
f 39/105/161 40/106/162 44/107/163 43/108/164
f 40/97/165 37/98/166 41/99/167 44/100/168
f 41/129/169 42/130/170 46/131/171 45/132/172
f 42/130/173 43/133/174 47/134/175 46/131/176
f 43/133/177 44/135/178 48/136/179 47/134/180
f 44/135/181 41/129/182 45/132/183 48/136/184
f 45/137/185 46/138/186 50/139/187 49/140/188
f 46/109/189 47/110/190 51/111/191 50/112/192
f 47/143/193 48/144/194 52/145/195 51/146/196
f 48/115/197 45/116/198 49/117/199 52/118/200
f 49/140/201 50/139/202 54/141/203 53/142/204
f 50/112/205 51/111/206 55/113/207 54/114/208
f 51/146/209 52/145/210 56/147/211 55/148/212
f 52/118/213 49/117/214 53/119/215 56/120/216
f 53/1/217 54/2/218 58/6/219 57/5/220
f 54/2/221 55/3/222 59/7/223 58/6/224
f 55/3/225 56/4/226 60/8/227 59/7/228
f 56/4/229 53/1/230 57/5/231 60/8/232
f 57/149/233 58/150/234 62/151/235 61/152/236
f 58/121/237 59/122/238 63/123/239 62/124/240
f 59/153/241 60/154/242 64/155/243 63/156/244
f 60/125/245 57/126/246 61/127/247 64/128/248
f 61/165/249 62/166/250 66/167/251 65/168/252
f 62/166/253 63/169/254 67/170/255 66/167/256
f 63/169/257 64/171/258 68/172/259 67/170/260
f 64/171/261 61/165/262 65/168/263 68/172/264
f 65/175/265 66/176/266 70/177/267 69/178/268
f 66/157/269 67/158/270 71/159/271 70/160/272
f 67/170/273 68/172/274 72/173/275 71/174/276
f 68/161/277 65/162/278 69/163/279 72/164/280
